<svg xmlns="http://www.w3.org/2000/svg" width="19" height="14" viewBox="0 0 19 14" fill="none">
    <g clip-path="url(#clip0_5454_27033)">
        <path
            d="M18.0712 1.98016C18.3364 1.66195 18.2934 1.18903 17.9752 0.923853C17.6569 0.65868 17.184 0.701673 16.9189 1.01988L11.5282 7.48869C10.4453 8.7881 9.68361 9.69936 9.02291 10.296C8.37762 10.8787 7.93228 11.0639 7.49502 11.0639C7.05775 11.0639 6.61241 10.8787 5.96712 10.296C5.30643 9.69935 4.54468 8.78809 3.46185 7.48869L2.07117 5.81988C1.80601 5.50167 1.33309 5.45868 1.01488 5.72385C0.696668 5.98903 0.653675 6.46195 0.918848 6.78016L2.34812 8.49528C3.38339 9.73764 4.21247 10.7326 4.96183 11.4092C5.73588 12.1082 6.52715 12.5639 7.49502 12.5639C8.46288 12.5639 9.25414 12.1082 10.0282 11.4092C10.7776 10.7326 11.6066 9.73766 12.6419 8.49532L18.0712 1.98016Z"
            fill="black" />
    </g>
    <defs>
        <clipPath id="clip0_5454_27033">
            <rect width="19" height="13" fill="white" transform="translate(-0.00500488 0.5)" />
        </clipPath>
    </defs>
</svg>