<svg xmlns="http://www.w3.org/2000/svg" width="210" height="180" viewBox="0 0 210 180" fill="none">
  <g clip-path="url(#clip0_5454_27386)">
    <path fill-rule="evenodd" clip-rule="evenodd" d="M150.992 10.388C143.334 2.94357 132.684 -0.59067 122.085 0.795927C111.765 2.24576 102.598 8.13031 96.9939 16.9015C93.7944 21.8197 91.8455 27.443 91.3161 33.2834L92.733 31.8666C79.6182 30.7346 66.4239 32.7938 54.2809 37.8678C44.0836 42.7334 36.88 52.2297 34.9531 63.3472C33.9483 69.2477 35.2022 75.3097 38.4659 80.3304L39.4094 78.0182C23.3986 82.0743 10.1013 93.1727 3.26642 108.184C0.205083 115.8 -0.331257 124.194 1.73607 132.136C3.75381 139.432 8.43263 145.711 14.8528 149.738C21.6958 154.24 30.1961 155.452 38.0281 153.044L35.8569 151.814C40.5436 165.656 52.5293 175.764 66.983 178.065C83.2873 181.294 100.204 179.039 115.089 171.653C123.989 167.474 132.073 161.746 138.962 154.737L137.672 155.272C146.727 155.83 155.807 154.712 164.455 151.975C172.453 149.592 180.042 146.011 186.963 141.354C193.37 137.141 198.738 131.534 202.665 124.954C206.23 118.757 207.797 111.613 207.153 104.496C206.633 96.6131 202.75 89.3322 196.49 84.5005V87.7395C205.293 81.035 210.151 70.3766 209.43 59.3464C208.584 50.8634 204.379 43.0694 197.747 37.6978C191.116 32.3263 182.61 29.8227 174.12 30.7439L175.447 33.9427C181.425 28.2224 183.057 19.3217 179.498 11.8582C175.76 4.60011 167.554 0.811295 159.593 2.66712C155.206 3.53313 151.293 5.98593 148.606 9.55488C148.118 10.4038 148.402 11.4869 149.245 11.9874C150.097 12.4581 151.169 12.1776 151.68 11.3503C155.865 6.45374 162.642 4.64399 168.717 6.80156C174.849 9.19007 178.506 15.5006 177.524 21.9983C177.165 25.5772 175.477 28.8926 172.793 31.2919C172.274 31.8337 172.124 32.6305 172.412 33.3232C172.699 34.016 173.369 34.4739 174.12 34.4907C183.964 33.3749 193.703 37.3226 199.981 44.9739C205.966 52.5871 207.494 62.7833 204.004 71.8121C202.216 76.8894 198.936 81.311 194.594 84.5005C194.098 84.7994 193.766 85.3079 193.692 85.8814C193.618 86.455 193.81 87.0309 194.214 87.4454C204.606 96.6652 206.695 112.079 199.132 123.724C195.155 130.121 189.738 135.503 183.311 139.442C176.246 143.934 168.525 147.302 160.424 149.426C156.046 150.621 151.562 151.386 147.035 151.712C144.84 151.854 142.636 151.841 140.439 151.77C139.363 151.599 138.268 151.572 137.185 151.69C136.235 152.192 135.412 152.901 134.775 153.766C129.073 159.279 122.574 163.906 115.495 167.492C102.024 174.658 86.6482 177.446 71.5134 175.467C58.5023 174.266 46.9502 166.661 40.7188 155.196C40.1105 153.799 39.6224 152.354 39.2599 150.874C38.993 149.942 38.0269 149.395 37.0882 149.645C23.9294 153.327 10.1602 146.215 5.57021 133.365C3.14045 126.222 3.14829 118.477 5.59253 111.339C8.01454 104.216 12.3269 97.8833 18.0701 93.0145C24.5429 87.523 32.0985 83.4492 40.248 81.0566C40.7173 80.9212 41.0985 80.5785 41.2825 80.1267C41.4665 79.6749 41.433 79.1639 41.1915 78.7399C36.1738 70.0891 36.9107 59.2651 43.0548 51.3715C50.0667 42.3772 60.5175 36.7084 71.8923 35.7293C78.7968 34.7859 85.7702 34.44 92.7344 34.6957C93.5094 34.6796 94.1343 34.057 94.1518 33.2834C95.1199 23.7558 100.088 15.0845 107.824 9.42123C115.705 3.81998 125.631 1.90242 135.036 4.16407C140.503 5.39396 145.602 7.89255 149.921 11.4573C150.221 11.7236 150.677 11.7102 150.961 11.4267C151.245 11.1431 151.259 10.6877 150.992 10.388Z" fill="white"/>
  </g>
  <defs>
    <clipPath id="clip0_5454_27386">
      <rect width="209" height="179" fill="white" transform="translate(0.5 0.5)"/>
    </clipPath>
  </defs>
</svg>