<svg xmlns="http://www.w3.org/2000/svg" width="191" height="198" viewBox="0 0 191 198" fill="none">
    <rect x="0.46875" y="0.96875" width="190.062" height="196.062" rx="7.53125" fill="#3F3F3F" />
    <rect x="0.46875" y="0.96875" width="190.062" height="196.062" rx="7.53125" stroke="#C9C9C9"
        stroke-width="0.9375" />
    <circle cx="93" cy="100" r="66.5" fill="#545557" />
    <path
        d="M138.5 85.5C138.5 97.7 133.654 109.4 125.027 118.027C116.4 126.654 104.7 131.5 92.5 131.5C80.3 131.5 68.5998 126.654 59.9731 118.027C51.3464 109.4 46.5 97.7 46.5 85.5L66.1725 85.5C66.1725 92.4825 68.9463 99.179 73.8836 104.116C78.821 109.054 85.5175 111.828 92.5 111.828C99.4825 111.828 106.179 109.054 111.116 104.116C116.054 99.179 118.828 92.4825 118.828 85.5H138.5Z"
        fill="#B5B5B5" />
</svg>