<svg xmlns="http://www.w3.org/2000/svg" width="19" height="19" viewBox="0 0 19 19" fill="none">
  <g clip-path="url(#clip0_5454_27269)">
    <path d="M16.27 12.5V16.5H2.27002V12.5H16.27ZM17.27 10.5H1.27002C0.72002 10.5 0.27002 10.95 0.27002 11.5V17.5C0.27002 18.05 0.72002 18.5 1.27002 18.5H17.27C17.82 18.5 18.27 18.05 18.27 17.5V11.5C18.27 10.95 17.82 10.5 17.27 10.5ZM4.27002 16C3.45002 16 2.77002 15.33 2.77002 14.5C2.77002 13.67 3.45002 13 4.27002 13C5.09002 13 5.77002 13.67 5.77002 14.5C5.77002 15.33 5.10002 16 4.27002 16ZM16.27 2.5V6.5H2.27002V2.5H16.27ZM17.27 0.5H1.27002C0.72002 0.5 0.27002 0.95 0.27002 1.5V7.5C0.27002 8.05 0.72002 8.5 1.27002 8.5H17.27C17.82 8.5 18.27 8.05 18.27 7.5V1.5C18.27 0.95 17.82 0.5 17.27 0.5ZM4.27002 6C3.45002 6 2.77002 5.33 2.77002 4.5C2.77002 3.67 3.45002 3 4.27002 3C5.09002 3 5.77002 3.68 5.77002 4.5C5.77002 5.32 5.10002 6 4.27002 6Z" fill="#2A2A2A"/>
  </g>
  <defs>
    <clipPath id="clip0_5454_27269">
      <rect width="18" height="18" fill="white" transform="translate(0.27002 0.5)"/>
    </clipPath>
  </defs>
</svg>